<?xml version="1.0" standalone="no"?>
<!DOCTYPE svg PUBLIC "-//W3C//DTD SVG 20010904//EN"
 "http://www.w3.org/TR/2001/REC-SVG-20010904/DTD/svg10.dtd">
<svg version="1.0" xmlns="http://www.w3.org/2000/svg"
 width="400.000000pt" height="228.000000pt" viewBox="0 0 400.000000 228.000000"
 preserveAspectRatio="xMidYMid meet">

<g transform="translate(0.000000,228.000000) scale(0.100000,-0.100000)"
fill="#000000" stroke="none">
<path d="M0 2153 c0 -124 0 -126 19 -105 14 17 30 22 65 22 25 0 46 -4 46 -10
0 -5 9 -10 20 -10 16 0 20 -7 20 -30 0 -16 5 -30 10 -30 6 0 10 -27 10 -60 l0
-60 30 0 c17 0 30 5 30 10 0 6 37 10 90 10 53 0 90 -4 90 -10 0 -5 23 -10 50
-10 28 0 50 -4 50 -10 0 -5 7 -10 16 -10 9 0 29 -13 44 -30 15 -16 35 -30 44
-30 9 0 16 -4 16 -10 0 -5 9 -10 20 -10 11 0 20 -4 20 -10 0 -5 14 -10 30 -10
17 0 30 -4 30 -10 0 -6 27 -10 60 -10 33 0 60 4 60 10 0 6 14 10 30 10 17 0
30 5 30 10 0 6 9 10 20 10 19 0 20 7 20 120 0 73 4 120 10 120 6 0 10 9 10 20
0 11 5 20 10 20 6 0 10 7 10 15 0 19 181 201 206 208 11 3 -259 5 -598 6
l-618 1 0 -127z"/>
<path d="M1444 2273 c22 -6 146 -128 146 -144 0 -6 18 -28 40 -49 22 -21 40
-44 40 -50 0 -6 18 -29 40 -50 22 -21 40 -44 40 -50 0 -6 18 -29 40 -50 22
-21 40 -44 40 -50 0 -6 18 -29 40 -50 22 -21 40 -44 40 -50 0 -6 18 -29 40
-50 32 -31 40 -46 40 -74 0 -20 -4 -36 -10 -36 -5 0 -10 -8 -10 -18 0 -10 -9
-24 -20 -32 -11 -8 -20 -21 -20 -30 0 -9 -9 -22 -20 -30 -11 -8 -20 -21 -20
-28 0 -8 -13 -27 -30 -42 -16 -15 -30 -35 -30 -44 0 -9 -4 -16 -10 -16 -5 0
-10 -11 -10 -25 0 -29 51 -88 58 -67 2 7 12 12 23 12 12 0 19 7 19 18 0 10 9
24 20 32 11 8 20 21 20 30 0 9 9 22 20 30 11 8 20 21 20 30 0 9 9 22 20 30 11
8 20 21 20 30 0 9 9 22 20 30 11 8 20 20 20 28 0 7 6 20 14 28 17 16 66 19 66
4 0 -5 9 -10 20 -10 17 0 20 -7 20 -40 0 -22 -4 -40 -10 -40 -5 0 -10 -8 -10
-18 0 -10 -9 -24 -20 -32 -11 -8 -20 -21 -20 -30 0 -9 -9 -22 -20 -30 -11 -8
-20 -21 -20 -30 0 -9 -9 -22 -20 -30 -11 -8 -20 -21 -20 -30 0 -9 -9 -22 -20
-30 -23 -17 -26 -55 -6 -76 8 -8 31 -14 50 -14 28 0 36 4 36 18 0 10 9 24 20
32 11 8 20 21 20 30 0 9 9 22 20 30 11 8 20 21 20 30 0 9 9 22 20 30 11 8 20
21 20 30 0 9 9 22 20 30 11 8 20 20 20 28 0 24 28 42 64 42 20 0 36 -4 36 -10
0 -5 9 -10 20 -10 15 0 20 -7 20 -28 0 -16 -8 -34 -20 -42 -11 -8 -20 -21 -20
-30 0 -9 -9 -22 -20 -30 -11 -8 -20 -21 -20 -30 0 -9 -9 -22 -20 -30 -11 -8
-20 -21 -20 -28 0 -8 -13 -27 -30 -42 -16 -15 -30 -35 -30 -44 0 -9 -4 -16
-10 -16 -5 0 -10 -7 -10 -15 0 -18 44 -65 60 -65 15 0 80 67 80 82 0 8 9 20
20 28 11 8 20 21 20 28 0 8 14 27 30 42 17 15 30 34 30 42 0 7 9 20 20 28 11
8 20 20 20 28 0 7 6 20 14 28 17 16 66 19 66 4 0 -5 7 -10 16 -10 19 0 44 -24
44 -42 0 -8 -9 -20 -20 -28 -11 -8 -20 -21 -20 -30 0 -9 -9 -22 -20 -30 -11
-8 -20 -21 -20 -30 0 -9 -9 -22 -20 -30 -11 -8 -20 -21 -20 -30 0 -9 -9 -22
-20 -30 -11 -8 -20 -21 -20 -30 0 -9 -9 -22 -20 -30 -28 -20 -29 -90 -1 -90
11 0 22 -6 25 -12 5 -10 7 -10 12 0 3 6 14 12 25 12 12 0 19 7 19 18 0 10 9
24 20 32 11 8 20 21 20 30 0 9 9 22 20 30 11 8 20 21 20 30 0 9 9 22 20 30 11
8 20 21 20 30 0 9 9 22 20 30 11 8 20 20 20 28 0 22 48 62 75 62 14 0 25 -4
25 -10 0 -5 9 -10 20 -10 11 0 20 -4 20 -10 0 -5 9 -10 20 -10 11 0 20 -4 20
-10 0 -5 14 -10 30 -10 17 0 30 -4 30 -10 0 -5 9 -10 20 -10 11 0 20 -4 20
-10 0 -5 14 -10 30 -10 17 0 30 -4 30 -10 0 -5 9 -10 20 -10 11 0 20 -4 20
-10 0 -5 14 -10 30 -10 17 0 30 -4 30 -10 0 -5 14 -10 30 -10 17 0 30 -4 30
-10 0 -5 14 -10 30 -10 17 0 30 -4 30 -10 0 -5 14 -10 30 -10 17 0 30 -4 30
-10 0 -5 14 -10 30 -10 17 0 30 -4 30 -10 0 -5 14 -10 30 -10 17 0 30 -4 30
-10 0 -5 18 -10 40 -10 22 0 40 -4 40 -10 0 -5 18 -10 40 -10 22 0 40 -4 40
-10 0 -5 18 -10 40 -10 22 0 40 -4 40 -10 0 -5 18 -10 40 -10 22 0 40 -4 40
-10 0 -5 18 -10 40 -10 22 0 40 -4 40 -10 0 -5 8 -10 18 -10 10 0 24 -9 32
-20 8 -11 20 -20 28 -20 17 0 42 -24 42 -41 0 -6 9 -19 19 -28 11 -9 21 -30
24 -46 2 -17 5 329 6 768 l1 797 -1287 -1 c-709 -1 -1280 -3 -1269 -6z"/>
<path d="M1263 2054 c-29 -29 -53 -59 -53 -67 0 -7 -9 -19 -20 -27 -11 -8 -20
-22 -20 -32 0 -10 -4 -18 -10 -18 -5 0 -10 -9 -10 -20 0 -18 7 -20 60 -20 33
0 60 4 60 10 0 6 30 10 70 10 40 0 70 -4 70 -10 0 -6 26 -10 59 -10 38 0 61
-4 64 -12 2 -7 8 -10 12 -6 4 4 -11 25 -34 47 -22 22 -41 45 -41 51 0 6 -18
29 -40 50 -22 21 -40 43 -40 50 0 16 -46 60 -62 59 -7 0 -37 -25 -65 -55z"/>
<path d="M0 730 l0 -60 235 0 c150 0 235 -4 235 -10 0 -6 47 -10 120 -10 73 0
120 -4 120 -10 0 -6 37 -10 90 -10 53 0 90 -4 90 -10 0 -6 30 -10 70 -10 40 0
70 -4 70 -10 0 -6 30 -10 70 -10 40 0 70 -4 70 -10 0 -6 30 -10 70 -10 40 0
70 -4 70 -10 0 -6 27 -10 60 -10 33 0 60 -4 60 -10 0 -6 33 -10 80 -10 47 0
80 -4 80 -10 0 -6 37 -10 90 -10 53 0 90 -4 90 -10 0 -6 33 -10 80 -10 47 0
80 -4 80 -10 0 -6 40 -10 100 -10 60 0 100 -4 100 -10 0 -6 40 -10 100 -10 60
0 100 -4 100 -10 0 -6 43 -10 110 -10 67 0 110 -4 110 -10 0 -6 53 -10 140
-10 87 0 140 -4 140 -10 0 -7 157 -10 450 -10 293 0 450 3 450 10 0 6 47 10
120 10 73 0 120 4 120 10 0 6 7 10 15 10 12 0 15 13 15 60 0 47 -3 60 -15 60
-8 0 -15 -4 -15 -10 0 -6 -50 -10 -130 -10 -80 0 -130 -4 -130 -10 0 -7 -150
-10 -430 -10 -280 0 -430 3 -430 10 0 6 -53 10 -140 10 -87 0 -140 4 -140 10
0 6 -47 10 -120 10 -73 0 -120 4 -120 10 0 6 -43 10 -110 10 -67 0 -110 4
-110 10 0 6 -40 10 -100 10 -60 0 -100 4 -100 10 0 6 -33 10 -80 10 -47 0 -80
4 -80 10 0 6 -37 10 -90 10 -53 0 -90 4 -90 10 0 6 -33 10 -80 10 -47 0 -80 4
-80 10 0 6 -30 10 -70 10 -40 0 -70 4 -70 10 0 6 -27 10 -60 10 -33 0 -60 4
-60 10 0 6 -30 10 -70 10 -40 0 -70 4 -70 10 0 6 -30 10 -70 10 -40 0 -70 4
-70 10 0 6 -37 10 -90 10 -53 0 -90 4 -90 10 0 6 -50 10 -130 10 -80 0 -130 4
-130 10 0 6 -78 10 -215 10 l-215 0 0 -60z"/>
<path d="M2 218 l-2 -218 148 2 c81 1 128 3 105 5 -24 2 -43 8 -43 14 0 5 -7
9 -15 9 -20 0 -145 125 -145 145 0 8 -4 15 -10 15 -5 0 -10 14 -10 30 0 17 -4
30 -10 30 -5 0 -11 42 -13 93 -1 50 -4 -6 -5 -125z"/>
<path d="M3990 270 c0 -11 -4 -20 -10 -20 -5 0 -10 -7 -10 -15 0 -19 -64 -85
-82 -85 -8 0 -20 -9 -28 -20 -8 -12 -26 -20 -42 -20 -15 0 -28 -4 -28 -10 0
-5 -22 -10 -50 -10 -27 0 -50 -4 -50 -10 0 -6 -27 -10 -60 -10 -33 0 -60 -4
-60 -10 0 -6 -30 -10 -70 -10 -40 0 -70 -4 -70 -10 0 -6 -30 -10 -70 -10 -38
0 -70 -4 -70 -10 0 -5 -49 -11 -112 -13 -62 -1 97 -4 355 -5 l467 -2 0 145 c0
80 -2 145 -5 145 -3 0 -5 -9 -5 -20z"/>
</g>
</svg>
